<svg width="12" height="13" viewBox="0 0 12 13" fill="none" xmlns="http://www.w3.org/2000/svg">
<path d="M1.5364 0.763604C1.18492 0.412132 0.615076 0.412132 0.263604 0.763604C-0.087868 1.11508 -0.087868 1.68492 0.263604 2.0364L4.72721 6.5L0.263604 10.9636C-0.087868 11.3151 -0.087868 11.8849 0.263604 12.2364C0.615076 12.5879 1.18492 12.5879 1.5364 12.2364L6 7.77279L10.4636 12.2364C10.8151 12.5879 11.3849 12.5879 11.7364 12.2364C12.0879 11.8849 12.0879 11.3151 11.7364 10.9636L7.27279 6.5L11.7364 2.0364C12.0879 1.68492 12.0879 1.11508 11.7364 0.763604C11.3849 0.412132 10.8151 0.412132 10.4636 0.763604L6 5.22721L1.5364 0.763604Z" fill="#FF5E5E"/>
</svg>
